<svg width="30" height="30" viewBox="0 0 30 30" fill="none" xmlns="http://www.w3.org/2000/svg">
<path d="M26.25 0H3.75C1.68187 0 0 1.68187 0 3.75V26.25C0 28.3181 1.68187 30 3.75 30H26.25C28.3181 30 30 28.3181 30 26.25V3.75C30 1.68187 28.3181 0 26.25 0Z" fill="#F4F6FC"/>
<path d="M21 13.6923H17.3333V10.6154C17.3333 9.76615 17.9904 9.84615 18.8 9.84615H20.2667V6H17.3333C14.9031 6 12.9333 8.06615 12.9333 10.6154V13.6923H10V17.5385H12.9333V26H17.3333V17.5385H19.5333L21 13.6923Z" fill="#444444"/>
</svg>
