<svg width="30" height="30" viewBox="0 0 30 30" fill="none" xmlns="http://www.w3.org/2000/svg">
<path d="M24.375 30H5.625C2.51813 30 0 27.4819 0 24.375V5.625C0 2.51813 2.51813 0 5.625 0H24.375C27.4819 0 30 2.51813 30 5.625V24.375C30 27.4819 27.4819 30 24.375 30Z" fill="#F7F8FA"/>
<path d="M18.9066 7.5H11.0944C10.1456 7.5 9.375 8.27063 9.375 9.21844V20.7806C9.375 21.7294 10.1456 22.5 11.0934 22.5H18.9056C19.8544 22.5 20.625 21.7294 20.625 20.7816V9.21844C20.625 8.27063 19.8544 7.5 18.9066 7.5ZM11.8753 10.6247H15.1566C15.5016 10.6247 15.7819 10.905 15.7819 11.25C15.7819 11.595 15.5016 11.8753 15.1566 11.8753H11.8753C11.5294 11.8753 11.25 11.595 11.25 11.25C11.25 10.905 11.5294 10.6247 11.8753 10.6247ZM18.1247 19.3753H11.8744C11.5294 19.3753 11.25 19.095 11.25 18.75C11.25 18.405 11.5303 18.1247 11.8753 18.1247H18.1256C18.4706 18.1247 18.75 18.405 18.75 18.75C18.75 19.095 18.4706 19.3753 18.1247 19.3753ZM18.1247 16.875H11.8744C11.5294 16.875 11.25 16.5956 11.25 16.2497C11.25 15.9038 11.5303 15.6244 11.8753 15.6244H18.1256C18.4706 15.6244 18.7509 15.9047 18.7509 16.2497C18.7509 16.5947 18.4706 16.875 18.1247 16.875ZM18.1247 14.3747H11.8744C11.5294 14.3747 11.2491 14.0944 11.2491 13.7494C11.2491 13.4044 11.5294 13.125 11.8753 13.125H18.1256C18.4706 13.125 18.75 13.4044 18.75 13.7503C18.75 14.0963 18.4706 14.3747 18.1247 14.3747Z" fill="#2E5BFF"/>
</svg>
