<svg width="30" height="30" viewBox="0 0 30 30" fill="none" xmlns="http://www.w3.org/2000/svg">
<path d="M24.375 30H5.625C2.51813 30 0 27.4819 0 24.375V5.625C0 2.51813 2.51813 0 5.625 0H24.375C27.4819 0 30 2.51813 30 5.625V24.375C30 27.4819 27.4819 30 24.375 30Z" fill="#F7F8FA"/>
<path d="M15 7.5C11.8978 7.5 9.375 10.0228 9.375 13.125C9.375 17.025 14.4525 22.1466 14.6691 22.3631C14.76 22.4541 14.88 22.5 15 22.5C15.12 22.5 15.24 22.4541 15.3319 22.3631C15.5475 22.1466 20.625 17.025 20.625 13.125C20.625 10.0228 18.1022 7.5 15 7.5ZM14.7628 13.2816H15.2381C15.9684 13.2816 16.5628 13.8759 16.5628 14.6062C16.5628 15.2634 16.0894 15.8034 15.4688 15.9141V16.4062C15.4688 16.665 15.2587 16.875 15 16.875C14.7413 16.875 14.5312 16.665 14.5312 16.4062V15.9375H13.9059C13.6472 15.9375 13.4372 15.7275 13.4372 15.4688C13.4372 15.21 13.6472 15 13.9059 15H15.2372C15.4509 15 15.6244 14.8256 15.6244 14.6128C15.6244 14.3934 15.45 14.2191 15.2372 14.2191H14.7619C14.0316 14.2191 13.4372 13.6247 13.4372 12.8944C13.4372 12.2372 13.9106 11.6972 14.5312 11.5866V11.0944C14.5312 10.8356 14.7413 10.6256 15 10.6256C15.2587 10.6256 15.4688 10.8356 15.4688 11.0944V11.5631H16.0941C16.3528 11.5631 16.5628 11.7731 16.5628 12.0319C16.5628 12.2906 16.3528 12.5006 16.0941 12.5006H14.7628C14.5491 12.5006 14.3756 12.675 14.3756 12.8878C14.3747 13.1072 14.5491 13.2816 14.7628 13.2816Z" fill="#2E5BFF"/>
</svg>
