<svg width="40" height="40" viewBox="0 0 40 40" fill="none" xmlns="http://www.w3.org/2000/svg">
<path d="M18.7201 39.7988C13.5585 39.4665 8.72863 37.1395 5.25187 33.3102C1.77511 29.4808 -0.075879 24.4492 0.0903832 19.2797C0.256645 14.1101 2.42712 9.20789 6.14276 5.60983C9.8584 2.01177 14.8279 0 20.0001 0C25.1723 0 30.1418 2.01177 33.8574 5.60983C37.5731 9.20789 39.7435 14.1101 39.9098 19.2797C40.076 24.4492 38.2251 29.4808 34.7483 33.3102C31.2715 37.1395 26.4416 39.4665 21.2801 39.7988V23.4788C22.067 23.1795 22.7241 22.6138 23.1371 21.8802C23.5501 21.1466 23.693 20.2914 23.5408 19.4634C23.3886 18.6353 22.951 17.8868 22.3041 17.348C21.6573 16.8091 20.842 16.5141 20.0001 16.5141C19.1582 16.5141 18.3429 16.8091 17.696 17.348C17.0491 17.8868 16.6116 18.6353 16.4594 19.4634C16.3072 20.2914 16.4501 21.1466 16.8631 21.8802C17.2761 22.6138 17.9332 23.1795 18.7201 23.4788" fill="#1166DD"/>
</svg>
