<svg width="30" height="30" viewBox="0 0 30 30" fill="none" xmlns="http://www.w3.org/2000/svg">
<path d="M24.375 30H5.625C2.51813 30 0 27.4819 0 24.375V5.625C0 2.51813 2.51813 0 5.625 0H24.375C27.4819 0 30 2.51813 30 5.625V24.375C30 27.4819 27.4819 30 24.375 30Z" fill="#F7F8FA"/>
<path d="M11.875 12.6579V18.7516H8.125V12.6579C8.125 12.2266 8.47469 11.877 8.90594 11.877H11.0931C11.5244 11.877 11.875 12.2266 11.875 12.6579Z" fill="#2E5BFF"/>
<path d="M16.875 10.1579V18.752H13.125V10.1579C13.125 9.72664 13.4747 9.37695 13.9059 9.37695H16.0931C16.5253 9.37695 16.875 9.72664 16.875 10.1579Z" fill="#2E5BFF"/>
<path d="M21.874 14.5329V18.7516H18.124V14.5329C18.124 14.1016 18.4737 13.752 18.905 13.752H21.0931C21.5243 13.752 21.874 14.1016 21.874 14.5329Z" fill="#2E5BFF"/>
<path d="M22.0313 20.626H7.96875C7.71 20.626 7.5 20.416 7.5 20.1572C7.5 19.8985 7.71 19.6885 7.96875 19.6885H22.0313C22.29 19.6885 22.5 19.8985 22.5 20.1572C22.5 20.416 22.29 20.626 22.0313 20.626Z" fill="#98AEFF"/>
</svg>
