<svg width="30" height="30" viewBox="0 0 30 30" fill="none" xmlns="http://www.w3.org/2000/svg">
<path d="M24.375 30H5.625C2.51813 30 0 27.4819 0 24.375V5.625C0 2.51813 2.51813 0 5.625 0H24.375C27.4819 0 30 2.51813 30 5.625V24.375C30 27.4819 27.4819 30 24.375 30Z" fill="#E3F8FA"/>
<path d="M24.375 30H5.625C2.51813 30 0 27.4819 0 24.375V5.625C0 2.51813 2.51813 0 5.625 0H24.375C27.4819 0 30 2.51813 30 5.625V24.375C30 27.4819 27.4819 30 24.375 30Z" fill="#F7F8FA"/>
<path d="M20.9766 11.0928H20.6644V14.0618C20.6644 15.5271 19.4728 16.7178 18.0085 16.7178H10.665V18.124C10.665 19.0718 11.4357 19.8425 12.3835 19.8425H13.1644V21.2487C13.1644 21.4418 13.2825 21.6153 13.4635 21.6856C13.5188 21.7072 13.576 21.7175 13.6332 21.7175C13.7616 21.7175 13.8882 21.664 13.9782 21.5656L15.5578 19.8425H20.9766C21.9244 19.8425 22.695 19.0718 22.695 18.124V12.8112C22.695 11.8643 21.9244 11.0928 20.9766 11.0928Z" fill="#98AEFF"/>
<path d="M18.0082 7.34375H8.94629C8.17098 7.34375 7.54004 7.97469 7.54004 8.75V14.0628C7.54004 14.8381 8.17098 15.4691 8.94629 15.4691H18.0091C18.7844 15.4691 19.4154 14.8381 19.4154 14.0628V8.75C19.4144 7.97469 18.7835 7.34375 18.0082 7.34375ZM18.1647 10.1187L13.9525 12.1625C13.8025 12.2375 13.6404 12.275 13.4772 12.275C13.3141 12.275 13.1519 12.2375 13.0019 12.1625L8.78973 10.1187V9.08187L13.4088 11.3197C13.4529 11.345 13.5025 11.345 13.5466 11.3197L18.1657 9.08187V10.1187H18.1647Z" fill="#2E5BFF"/>
</svg>
