<svg width="37" height="37" viewBox="0 0 37 37" fill="none" xmlns="http://www.w3.org/2000/svg">
<path d="M18.5 0C8.28273 0 0 8.28273 0 18.5C0 28.7173 8.28273 37 18.5 37C28.7173 37 37 28.7173 37 18.5C37 8.28273 28.7173 0 18.5 0ZM18.5 34.6875C9.55988 34.6875 2.3125 27.4401 2.3125 18.5C2.3125 9.55988 9.55988 2.3125 18.5 2.3125C27.4401 2.3125 34.6875 9.55988 34.6875 18.5C34.6875 27.4401 27.4401 34.6875 18.5 34.6875Z" fill="#768896"/>
<path d="M18.5003 20.108C19.3888 20.108 20.109 19.3878 20.109 18.4993C20.109 17.6109 19.3888 16.8906 18.5003 16.8906C17.6118 16.8906 16.8916 17.6109 16.8916 18.4993C16.8916 19.3878 17.6118 20.108 18.5003 20.108Z" fill="#768896"/>
<path d="M18.5003 13.6744C19.3888 13.6744 20.109 12.9542 20.109 12.0657C20.109 11.1773 19.3888 10.457 18.5003 10.457C17.6118 10.457 16.8916 11.1773 16.8916 12.0657C16.8916 12.9542 17.6118 13.6744 18.5003 13.6744Z" fill="#768896"/>
<path d="M18.5003 26.5436C19.3888 26.5436 20.109 25.8233 20.109 24.9349C20.109 24.0464 19.3888 23.3262 18.5003 23.3262C17.6118 23.3262 16.8916 24.0464 16.8916 24.9349C16.8916 25.8233 17.6118 26.5436 18.5003 26.5436Z" fill="#768896"/>
<path d="M24.1302 20.108C25.0186 20.108 25.7389 19.3878 25.7389 18.4993C25.7389 17.6109 25.0186 16.8906 24.1302 16.8906C23.2417 16.8906 22.5215 17.6109 22.5215 18.4993C22.5215 19.3878 23.2417 20.108 24.1302 20.108Z" fill="#768896"/>
<path d="M24.1302 13.6744C25.0186 13.6744 25.7389 12.9542 25.7389 12.0657C25.7389 11.1773 25.0186 10.457 24.1302 10.457C23.2417 10.457 22.5215 11.1773 22.5215 12.0657C22.5215 12.9542 23.2417 13.6744 24.1302 13.6744Z" fill="#768896"/>
<path d="M24.1302 26.5436C25.0186 26.5436 25.7389 25.8233 25.7389 24.9349C25.7389 24.0464 25.0186 23.3262 24.1302 23.3262C23.2417 23.3262 22.5215 24.0464 22.5215 24.9349C22.5215 25.8233 23.2417 26.5436 24.1302 26.5436Z" fill="#768896"/>
<path d="M12.8694 20.108C13.7579 20.108 14.4781 19.3878 14.4781 18.4993C14.4781 17.6109 13.7579 16.8906 12.8694 16.8906C11.981 16.8906 11.2607 17.6109 11.2607 18.4993C11.2607 19.3878 11.981 20.108 12.8694 20.108Z" fill="#768896"/>
<path d="M12.8694 13.6744C13.7579 13.6744 14.4781 12.9542 14.4781 12.0657C14.4781 11.1773 13.7579 10.457 12.8694 10.457C11.981 10.457 11.2607 11.1773 11.2607 12.0657C11.2607 12.9542 11.981 13.6744 12.8694 13.6744Z" fill="#768896"/>
<path d="M12.8694 26.5436C13.7579 26.5436 14.4781 25.8233 14.4781 24.9349C14.4781 24.0464 13.7579 23.3262 12.8694 23.3262C11.981 23.3262 11.2607 24.0464 11.2607 24.9349C11.2607 25.8233 11.981 26.5436 12.8694 26.5436Z" fill="#768896"/>
</svg>
