<svg width="30" height="30" viewBox="0 0 30 30" fill="none" xmlns="http://www.w3.org/2000/svg">
<path d="M24.375 30H5.625C2.51813 30 0 27.4819 0 24.375V5.625C0 2.51813 2.51813 0 5.625 0H24.375C27.4819 0 30 2.51813 30 5.625V24.375C30 27.4819 27.4819 30 24.375 30Z" fill="#F7F8FA"/>
<path d="M21.6769 13.3725L20.5022 13.2225C20.4056 12.9244 20.2866 12.6366 20.1459 12.3638L20.8716 11.43C21.165 11.0513 21.1313 10.5179 20.7956 10.1925L19.8113 9.20816C19.4831 8.86973 18.9497 8.83598 18.57 9.12848L17.6363 9.8541C17.3634 9.71441 17.0756 9.59535 16.7775 9.49879L16.6294 8.32598C16.5722 7.85535 16.1728 7.50098 15.7003 7.50098H14.3006C13.8272 7.50098 13.4278 7.85535 13.3716 8.3241L13.2216 9.49879C12.9234 9.59629 12.6356 9.71441 12.3628 9.8541L11.4291 9.12848C11.0513 8.83504 10.5178 8.86879 10.1916 9.20441L9.20719 10.1888C8.86875 10.5179 8.83406 11.0513 9.1275 11.43L9.85313 12.3638C9.71344 12.6366 9.59438 12.9244 9.49688 13.2225L8.325 13.3716C7.85438 13.4288 7.5 13.8282 7.5 14.3007V15.7004C7.5 16.1738 7.85438 16.5732 8.32313 16.6294L9.49781 16.7794C9.59437 17.0775 9.71344 17.3654 9.85406 17.6382L9.12844 18.5719C8.835 18.9507 8.86875 19.4841 9.20437 19.8094L10.1888 20.7938C10.5178 21.1322 11.0503 21.166 11.4291 20.8725L12.3628 20.1469C12.6356 20.2866 12.9234 20.4057 13.2216 20.5032L13.3706 21.676C13.4269 22.1466 13.8263 22.501 14.2997 22.501H15.6994C16.1728 22.501 16.5722 22.1466 16.6284 21.6779L16.7784 20.5032C17.0766 20.4066 17.3644 20.2875 17.6372 20.1469L18.5709 20.8725C18.9488 21.166 19.4831 21.1322 19.8084 20.7966L20.7928 19.8122C21.1313 19.4832 21.1659 18.9497 20.8725 18.571L20.1469 17.6372C20.2866 17.3644 20.4056 17.0766 20.5031 16.7785L21.6759 16.6294C22.1466 16.5732 22.5009 16.1738 22.5009 15.7004V14.3007C22.5 13.8282 22.1456 13.4288 21.6769 13.3725ZM15 18.1257C13.2769 18.1257 11.8753 16.7241 11.8753 15.001C11.8753 13.2779 13.2769 11.8763 15 11.8763C16.7231 11.8763 18.1247 13.2779 18.1247 15.001C18.1247 16.7241 16.7231 18.1257 15 18.1257Z" fill="#2E5BFF"/>
</svg>
