<svg width="30" height="30" viewBox="0 0 30 30" fill="none" xmlns="http://www.w3.org/2000/svg">
<rect width="30" height="30" rx="2" fill="#F4F6FC"/>
<path d="M25 8.89415C24.2563 9.21538 23.4637 9.42831 22.6375 9.53169C23.4875 9.032 24.1363 8.24677 24.4412 7.30031C23.6488 7.76554 22.7738 8.09415 21.8412 8.27754C21.0887 7.48862 20.0162 7 18.8462 7C16.5763 7 14.7487 8.81415 14.7487 11.0382C14.7487 11.3582 14.7762 11.6658 14.8438 11.9588C11.435 11.7951 8.41875 10.1865 6.3925 7.736C6.03875 8.34031 5.83125 9.032 5.83125 9.77662C5.83125 11.1748 6.5625 12.4142 7.6525 13.1317C6.99375 13.1194 6.3475 12.9311 5.8 12.6345C5.8 12.6468 5.8 12.6628 5.8 12.6788C5.8 14.6406 7.22125 16.2702 9.085 16.6455C8.75125 16.7354 8.3875 16.7785 8.01 16.7785C7.7475 16.7785 7.4825 16.7637 7.23375 16.7095C7.765 18.3083 9.2725 19.4837 11.065 19.5218C9.67 20.5963 7.89875 21.2437 5.98125 21.2437C5.645 21.2437 5.3225 21.2289 5 21.1883C6.81625 22.3415 8.96875 23 11.29 23C18.835 23 22.96 16.8462 22.96 11.512C22.96 11.3335 22.9538 11.1612 22.945 10.9902C23.7588 10.4215 24.4425 9.71138 25 8.89415Z" fill="#444444"/>
</svg>
